<svg width="32" height="32" viewBox="0 0 32 32" fill="none" xmlns="http://www.w3.org/2000/svg">
<rect width="32" height="32" fill="#350F26"/>
<path d="M5 16.2941L8.10457 13C9.28825 15.1724 9.30867 17.7069 8.10457 20L5 16.2941Z" fill="#C9308C"/>
<path d="M9 20.9181C10.8685 18.0036 10.6596 14.7883 9 12.29L10.6596 10C13.9886 12.8915 13.5543 20.8719 10.6922 23L9 20.9181Z" fill="#C9308C"/>
<path d="M14 20.9181C15.4014 18.0036 15.2447 14.7883 14 12.29L15.2447 10C17.7414 12.8915 17.4157 20.8719 15.2692 23L14 20.9181Z" fill="#C9308C"/>
<path d="M17 22.2776C18.8685 18.4662 18.6596 14.2616 17 10.9947L18.6596 8C21.9886 11.7811 21.5543 22.2171 18.6922 25L17 22.2776Z" fill="#C9308C"/>
<path d="M18 20.9181C20.3356 18.0036 20.0745 14.7883 18 12.29L20.0745 10C24.2357 12.8915 23.6929 20.8719 20.1153 23L18 20.9181Z" fill="#C9308C"/>
<path d="M11 8V8.54745C11.9448 9.24818 12.6963 10.2555 12.8466 11L18 8H11Z" fill="#C9308C"/>
<path d="M11 25V24.4526C11.9448 23.7518 12.6963 22.7445 12.8466 22L18 25H11Z" fill="#C9308C"/>
<path d="M18.5001 21.3571C19.6857 21.3571 20.6965 20.8836 21.5321 19.9364C22.368 18.9893 22.7858 17.8438 22.7858 16.5C22.7858 15.1562 22.368 14.0107 21.5321 13.0636C20.6965 12.1164 19.6857 11.6429 18.5001 11.6429C17.3143 11.6429 16.3035 12.1164 15.4679 13.0636C14.6322 14.0107 14.2144 15.1562 14.2144 16.5C14.2144 17.8438 14.6322 18.9893 15.4679 19.9364C16.3035 20.8836 17.3143 21.3571 18.5001 21.3571ZM18.5001 25C16.4286 25 14.6608 24.1702 13.1966 22.5107C11.7321 20.8512 11 18.8476 11 16.5C11 14.1524 11.7321 12.1488 13.1966 10.4893C14.6608 8.82976 16.4286 8 18.5001 8C20.5714 8 22.3394 8.82976 23.8037 10.4893C25.2679 12.1488 26 14.1524 26 16.5C26 18.8476 25.2679 20.8512 23.8037 22.5107C22.3394 24.1702 20.5714 25 18.5001 25Z" fill="#C9308C"/>
<path d="M18.5001 20.2143C19.5276 20.2143 20.4036 19.8521 21.1278 19.1279C21.8523 18.4036 22.2144 17.5276 22.2144 16.5C22.2144 15.4724 21.8523 14.5964 21.1278 13.8721C20.4036 13.1479 19.5276 12.7857 18.5001 12.7857C17.4724 12.7857 16.5964 13.1479 15.8722 13.8721C15.1479 14.5964 14.7858 15.4724 14.7858 16.5C14.7858 17.5276 15.1479 18.4036 15.8722 19.1279C16.5964 19.8521 17.4724 20.2143 18.5001 20.2143ZM18.5001 23C16.7048 23 15.1727 22.3655 13.9037 21.0964C12.6345 19.8274 12 18.2952 12 16.5C12 14.7048 12.6345 13.1726 13.9037 11.9036C15.1727 10.6345 16.7048 10 18.5001 10C20.2952 10 21.8275 10.6345 23.0965 11.9036C24.3655 13.1726 25 14.7048 25 16.5C25 18.2952 24.3655 19.8274 23.0965 21.0964C21.8275 22.3655 20.2952 23 18.5001 23Z" fill="white"/>
</svg>
