<svg width="120" height="19" viewBox="0 0 120 19" fill="none" xmlns="http://www.w3.org/2000/svg">
<path d="M0.161133 7.64306C-0.152117 7.35337 0.0180407 6.82968 0.441738 6.77944L6.44531 6.06764C6.61799 6.04717 6.76799 5.93837 6.84082 5.78046L9.37305 0.290602C9.55175 -0.0968341 10.1025 -0.0968838 10.2812 0.290552L12.8135 5.78054C12.8863 5.93845 13.0353 6.04718 13.208 6.06765L19.2119 6.77944C19.6356 6.82968 19.8057 7.35341 19.4924 7.64309L15.0541 11.7478C14.9264 11.8659 14.8694 12.0419 14.9033 12.2124L16.0813 18.1422C16.1645 18.5607 15.7191 18.8843 15.3468 18.6759L10.0715 15.723C9.91971 15.6381 9.73488 15.638 9.58314 15.7229L4.30726 18.676C3.93495 18.8844 3.48911 18.5608 3.57227 18.1423L4.75055 12.2124C4.78444 12.0418 4.72751 11.8659 4.59984 11.7479L0.161133 7.64306Z" fill="white"/>
<path d="M24.9873 7.64306C24.6741 7.35337 24.8442 6.82968 25.2679 6.77944L31.2715 6.06764C31.4442 6.04717 31.5942 5.93837 31.667 5.78046L34.1992 0.290602C34.3779 -0.0968341 34.9287 -0.0968838 35.1074 0.290552L37.6396 5.78054C37.7125 5.93845 37.8615 6.04718 38.0342 6.06765L44.0381 6.77944C44.4618 6.82968 44.6318 7.35341 44.3186 7.64309L39.8803 11.7478C39.7526 11.8659 39.6956 12.0419 39.7295 12.2124L40.9075 18.1422C40.9906 18.5607 40.5453 18.8843 40.173 18.6759L34.8976 15.723C34.7459 15.6381 34.561 15.638 34.4093 15.7229L29.1334 18.676C28.7611 18.8844 28.3153 18.5608 28.3984 18.1423L29.5767 12.2124C29.6106 12.0418 29.5537 11.8659 29.426 11.7479L24.9873 7.64306Z" fill="white"/>
<path d="M49.9873 7.64306C49.6741 7.35337 49.8442 6.82968 50.2679 6.77944L56.2715 6.06764C56.4442 6.04717 56.5942 5.93837 56.667 5.78046L59.1992 0.290602C59.3779 -0.0968341 59.9287 -0.0968838 60.1074 0.290552L62.6396 5.78054C62.7125 5.93845 62.8615 6.04718 63.0342 6.06765L69.0381 6.77944C69.4618 6.82968 69.6318 7.35341 69.3186 7.64309L64.8803 11.7478C64.7526 11.8659 64.6956 12.0419 64.7295 12.2124L65.9075 18.1422C65.9906 18.5607 65.5453 18.8843 65.173 18.6759L59.8976 15.723C59.7459 15.6381 59.561 15.638 59.4093 15.7229L54.1334 18.676C53.7611 18.8844 53.3153 18.5608 53.3984 18.1423L54.5767 12.2124C54.6106 12.0418 54.5537 11.8659 54.426 11.7479L49.9873 7.64306Z" fill="white"/>
<path d="M74.9873 7.64306C74.6741 7.35337 74.8442 6.82968 75.2679 6.77944L81.2715 6.06764C81.4442 6.04717 81.5942 5.93837 81.667 5.78046L84.1992 0.290602C84.3779 -0.0968341 84.9287 -0.0968838 85.1074 0.290552L87.6396 5.78054C87.7125 5.93845 87.8615 6.04718 88.0342 6.06765L94.0381 6.77944C94.4618 6.82968 94.6318 7.35341 94.3186 7.64309L89.8803 11.7478C89.7526 11.8659 89.6956 12.0419 89.7295 12.2124L90.9075 18.1422C90.9906 18.5607 90.5453 18.8843 90.173 18.6759L84.8976 15.723C84.7459 15.6381 84.561 15.638 84.4093 15.7229L79.1334 18.676C78.7611 18.8844 78.3153 18.5608 78.3984 18.1423L79.5767 12.2124C79.6106 12.0418 79.5537 11.8659 79.426 11.7479L74.9873 7.64306Z" fill="white"/>
<path d="M112.916 7.0607L112.916 7.0607L117.844 7.64487L114.201 11.0136C114.201 11.0137 114.201 11.0137 114.201 11.0137C113.818 11.3684 113.647 11.8965 113.749 12.4073L114.715 17.2738L110.386 14.8504C109.931 14.5959 109.377 14.5953 108.921 14.8503C108.921 14.8503 108.921 14.8503 108.921 14.8503L104.59 17.2742L105.558 12.4073C105.659 11.8965 105.489 11.3685 105.105 11.0137L101.462 7.64486L106.389 7.06069C106.907 6.99934 107.356 6.67361 107.575 6.19931L109.653 1.69361L111.732 6.19938L111.732 6.19939C111.949 6.67154 112.397 6.99907 112.916 7.0607ZM118.64 6.90891L118.64 6.90893L118.64 6.90891ZM114.927 18.3371C114.927 18.3368 114.927 18.3365 114.926 18.3363L114.927 18.3371L114.927 18.3371ZM115.661 17.803C115.661 17.8031 115.661 17.8032 115.661 17.8033L115.661 17.803ZM110.107 0.290552L109.653 0.500031L110.107 0.290552Z" stroke="white" stroke-width="2" stroke-linecap="round" stroke-linejoin="round"/>
</svg>
