<svg width="21" height="22" viewBox="0 0 21 22" fill="none" xmlns="http://www.w3.org/2000/svg">
<path d="M20 17.0839V10.539V10.5382C20 9.88481 20 9.55796 19.9229 9.25381C19.8545 8.98415 19.7419 8.72843 19.59 8.49783C19.4186 8.23761 19.1801 8.02236 18.7026 7.59174L13.0026 2.45173C12.116 1.65223 11.6727 1.25253 11.1738 1.10048C10.7342 0.966506 10.2658 0.966506 9.82623 1.10048C9.32761 1.25245 8.88476 1.65179 7.99913 2.45041L7.99767 2.45173L2.29767 7.59174L2.29654 7.59277C1.81976 8.0227 1.58121 8.23782 1.40994 8.49783C1.25805 8.72843 1.14553 8.98415 1.07715 9.25381C1 9.5581 1 9.88509 1 10.539V17.0839C1 18.4547 1 19.1401 1.25886 19.6636C1.48656 20.1242 1.84962 20.4987 2.29651 20.7333C2.80434 21 3.46956 21 4.79858 21H4.80023H16.2002H16.2019C17.5309 21 18.1952 21 18.703 20.7333C19.1499 20.4987 19.5137 20.1242 19.7414 19.6636C20 19.1406 20 18.456 20 17.0879V17.0839Z" stroke="white" stroke-width="2" stroke-linecap="round" stroke-linejoin="round"/>
</svg>
