<svg width="23" height="16" viewBox="0 0 23 16" fill="none" xmlns="http://www.w3.org/2000/svg">
<path d="M2.41319 5.60993L5.4016 2.34326C5.8533 1.84949 6.08029 1.6026 6.35715 1.42511C6.60246 1.26785 6.87594 1.15111 7.16561 1.08012C7.49253 1 7.8448 1 8.55039 1H17.9014C19.3359 1 20.0538 1 20.6017 1.25432C21.0837 1.47802 21.4752 1.835 21.7208 2.27405C22 2.77318 22 3.42649 22 4.73328V11.2666C22 12.5734 22 13.2269 21.7208 13.726C21.4752 14.1651 21.0837 14.5219 20.6017 14.7456C20.0538 15 19.3359 15 17.9014 15H8.55039C7.8448 15 7.49253 14.9999 7.16561 14.9198C6.87594 14.8488 6.60246 14.7321 6.35715 14.5749C6.08029 14.3974 5.8533 14.1504 5.4016 13.6567L2.41319 10.39C1.63537 9.53977 1.24689 9.11471 1.09827 8.64016C0.967241 8.22176 0.967243 7.77829 1.09827 7.3599C1.24689 6.88535 1.63538 6.46017 2.41319 5.60993Z" stroke="#927587" stroke-width="2" stroke-linecap="round" stroke-linejoin="round"/>
<path d="M11.0401 4.95951C10.6496 4.56899 10.0164 4.569 9.62589 4.95953C9.23537 5.35005 9.23538 5.98322 9.62591 6.37374L11.0401 4.95951ZM14.2926 11.0403C14.6831 11.4308 15.3163 11.4308 15.7068 11.0403C16.0973 10.6498 16.0973 10.0166 15.7068 9.62608L14.2926 11.0403ZM9.62591 9.62618C9.23538 10.0167 9.23537 10.6499 9.62589 11.0404C10.0164 11.4309 10.6496 11.4309 11.0401 11.0404L9.62591 9.62618ZM15.7068 6.37383C16.0973 5.98331 16.0973 5.35015 15.7068 4.95962C15.3163 4.56909 14.6831 4.56909 14.2926 4.95961L15.7068 6.37383ZM12.6663 8.00001L11.9592 7.29289L11.9592 7.29289L12.6663 8.00001ZM9.62591 6.37374L14.2926 11.0403L15.7068 9.62608L11.0401 4.95951L9.62591 6.37374ZM11.0401 11.0404L13.3734 8.70712L11.9592 7.29289L9.62591 9.62618L11.0401 11.0404ZM13.3734 8.70712L15.7068 6.37383L14.2926 4.95961L11.9592 7.29289L13.3734 8.70712Z" fill="#927587"/>
</svg>
