<svg width="21" height="21" viewBox="0 0 21 21" fill="none" xmlns="http://www.w3.org/2000/svg">
<g clip-path="url(#clip0_23_137)">
<path d="M14.875 0C14.6429 0 14.4204 0.0921872 14.2563 0.256282C14.0922 0.420376 14 0.642936 14 0.875C14 3.45537 11.7399 4.375 9.625 4.375H3.5C2.57174 4.375 1.6815 4.74375 1.02513 5.40013C0.368749 6.0565 0 6.94674 0 7.875L0 9.625C0.00191114 10.1489 0.122029 10.6656 0.351402 11.1366C0.580775 11.6076 0.91349 12.0208 1.32475 12.3454L4.45025 19.3209C4.67253 19.8206 5.0349 20.2451 5.49349 20.5431C5.95207 20.8412 6.48721 20.9998 7.03413 21C7.46927 20.9997 7.89744 20.8906 8.27966 20.6826C8.66187 20.4746 8.986 20.1743 9.22254 19.8091C9.45908 19.4438 9.60052 19.0252 9.63398 18.5914C9.66744 18.1575 9.59186 17.7222 9.41413 17.325L7.48913 13.125H9.625C11.7399 13.125 14 14.0446 14 16.625C14 16.8571 14.0922 17.0796 14.2563 17.2437C14.4204 17.4078 14.6429 17.5 14.875 17.5C15.1071 17.5 15.3296 17.4078 15.4937 17.2437C15.6578 17.0796 15.75 16.8571 15.75 16.625V0.875C15.75 0.642936 15.6578 0.420376 15.4937 0.256282C15.3296 0.0921872 15.1071 0 14.875 0V0ZM7.81988 18.0416C7.87783 18.1725 7.90221 18.3158 7.89079 18.4585C7.87937 18.6012 7.83252 18.7388 7.75449 18.8588C7.67645 18.9788 7.5697 19.0774 7.44391 19.1457C7.31812 19.214 7.17727 19.2499 7.03413 19.25C6.82535 19.2499 6.6211 19.1891 6.4462 19.0751C6.2713 18.9611 6.13327 18.7987 6.04888 18.6077L3.59188 13.125H5.56413L7.81988 18.0416ZM14 12.775C12.7499 11.8118 11.2021 11.3165 9.625 11.375H3.5C3.03587 11.375 2.59075 11.1906 2.26256 10.8624C1.93437 10.5342 1.75 10.0891 1.75 9.625V7.875C1.75 7.41087 1.93437 6.96575 2.26256 6.63756C2.59075 6.30937 3.03587 6.125 3.5 6.125H9.625C11.2015 6.18476 12.7493 5.69102 14 4.72938V12.775ZM20.9125 13.5205C20.8612 13.6234 20.7901 13.7151 20.7033 13.7905C20.6165 13.8659 20.5157 13.9234 20.4066 13.9598C20.2976 13.9962 20.1824 14.0108 20.0677 14.0027C19.953 13.9946 19.8411 13.9639 19.7383 13.9125L17.9883 13.0375C17.7806 12.9338 17.6226 12.7518 17.5491 12.5316C17.4755 12.3113 17.4925 12.0709 17.5963 11.8632C17.7 11.6556 17.882 11.4976 18.1022 11.4241C18.3224 11.3505 18.5628 11.3675 18.7705 11.4712L20.5205 12.3462C20.7271 12.4499 20.8843 12.6311 20.9578 12.8503C21.0312 13.0695 21.015 13.3089 20.9125 13.5161V13.5205ZM17.5963 5.6455C17.5448 5.54267 17.5142 5.43071 17.5061 5.31603C17.4979 5.20135 17.5125 5.08619 17.5489 4.97714C17.5853 4.86809 17.6429 4.76728 17.7182 4.68048C17.7936 4.59367 17.8854 4.52258 17.9883 4.47125L19.7383 3.59625C19.9459 3.49252 20.1863 3.47554 20.4066 3.54905C20.6268 3.62257 20.8088 3.78055 20.9125 3.98825C21.0162 4.19595 21.0332 4.43635 20.9597 4.65656C20.8862 4.87678 20.7282 5.05877 20.5205 5.1625L18.7705 6.0375C18.6677 6.08891 18.5557 6.11955 18.441 6.12768C18.3264 6.1358 18.2112 6.12124 18.1021 6.08484C17.9931 6.04843 17.8923 5.9909 17.8055 5.91551C17.7187 5.84013 17.6476 5.74837 17.5963 5.6455ZM17.5 8.75C17.5 8.51794 17.5922 8.29538 17.7563 8.13128C17.9204 7.96719 18.1429 7.875 18.375 7.875H20.125C20.3571 7.875 20.5796 7.96719 20.7437 8.13128C20.9078 8.29538 21 8.51794 21 8.75C21 8.98206 20.9078 9.20462 20.7437 9.36872C20.5796 9.53281 20.3571 9.625 20.125 9.625H18.375C18.1429 9.625 17.9204 9.53281 17.7563 9.36872C17.5922 9.20462 17.5 8.98206 17.5 8.75Z" fill="#A29CA8"/>
</g>
<defs>
<clipPath id="clip0_23_137">
<rect width="21" height="21" fill="white"/>
</clipPath>
</defs>
</svg>
