<svg width="20" height="20" viewBox="0 0 20 20" fill="none" xmlns="http://www.w3.org/2000/svg">
<path d="M18.1788 5.08728L17.4355 5.75625L18.1788 5.08728ZM15.4536 2.05933L14.7103 2.72829L15.4536 2.05933ZM1.21799 17.908L0.32698 18.362H0.32698L1.21799 17.908ZM2.0918 18.782L2.54579 17.891H2.54579L2.0918 18.782ZM2.0918 1.21799L2.54579 2.10899L2.0918 1.21799ZM1.21799 2.09204L2.10899 2.54603L1.21799 2.09204ZM14.7163 1.33435L15.2698 0.501516L15.2698 0.501516L14.7163 1.33435ZM14.1067 1.06287L14.3554 0.0943005L14.1067 1.06287ZM18.9517 6.3313L17.9757 6.54938L18.9517 6.3313ZM18.7428 5.78595L17.8715 6.27672L18.7428 5.78595ZM18.7822 17.908L17.8912 17.454L18.7822 17.908ZM17.9078 18.782L17.4538 17.891L17.9078 18.782ZM15 19L15 20C15.2652 20 15.5196 19.8947 15.7071 19.7071C15.8946 19.5196 16 19.2652 16 19H15ZM5 19H4C4 19.5523 4.44771 20 5 20L5 19ZM5.21799 13.092L6.10899 13.546L5.21799 13.092ZM6.0918 12.218L6.54579 13.109L6.0918 12.218ZM14.7822 13.092L13.8912 13.546L14.7822 13.092ZM13.9078 12.218L14.3618 11.327L13.9078 12.218ZM13 6C13.5523 6 14 5.55228 14 5C14 4.44772 13.5523 4 13 4V6ZM7 4C6.44772 4 6 4.44772 6 5C6 5.55228 6.44772 6 7 6V4ZM20 15.8V7.22797H18V15.8H20ZM18.9221 4.41832L16.1969 1.39036L14.7103 2.72829L17.4355 5.75625L18.9221 4.41832ZM13.075 0H4.2002V2H13.075V0ZM0 4.20001V15.8H2V4.20001H0ZM4.2002 20H15.8002V18H4.2002V20ZM0 15.8C0 16.3436 -0.000777721 16.8114 0.0305696 17.195C0.062871 17.5904 0.134188 17.9836 0.32698 18.362L2.10899 17.454C2.0838 17.4045 2.04612 17.3038 2.02393 17.0322C2.00078 16.7488 2 16.3766 2 15.8H0ZM4.2002 18C3.62367 18 3.25127 17.9992 2.96782 17.9761C2.69598 17.9538 2.59519 17.9161 2.54579 17.891L1.63781 19.673C2.01623 19.8658 2.40959 19.9371 2.80496 19.9694C3.18873 20.0008 3.65662 20 4.2002 20V18ZM0.32698 18.362C0.614491 18.9262 1.07311 19.3853 1.63781 19.673L2.54579 17.891C2.35784 17.7952 2.20498 17.6424 2.10899 17.454L0.32698 18.362ZM4.2002 0C3.65663 0 3.18874 -0.000777125 2.80498 0.0305674C2.40962 0.0628601 2.01624 0.134156 1.63781 0.32698L2.54579 2.10899C2.59517 2.08383 2.69595 2.04613 2.9678 2.02393C3.25126 2.00078 3.62365 2 4.2002 2V0ZM2 4.20001C2 3.62346 2.00078 3.25119 2.02393 2.96785C2.04612 2.69619 2.0838 2.59548 2.10899 2.54603L0.32698 1.63805C0.134187 2.01643 0.0628707 2.40964 0.0305695 2.80499C-0.000777721 3.18866 0 3.65646 0 4.20001H2ZM1.63781 0.32698C1.07306 0.614732 0.614469 1.07382 0.32698 1.63805L2.10899 2.54603C2.205 2.35761 2.35788 2.20474 2.54579 2.10899L1.63781 0.32698ZM16.1969 1.39036C15.8798 1.03802 15.61 0.7276 15.2698 0.501516L14.1628 2.16719C14.2436 2.22088 14.3253 2.3005 14.7103 2.72829L16.1969 1.39036ZM13.075 2C13.6511 2 13.7641 2.00733 13.8579 2.03143L14.3554 0.0943005C13.9597 -0.00733471 13.5485 0 13.075 0V2ZM15.2698 0.501516C14.9899 0.315491 14.6807 0.177853 14.3554 0.0943005L13.8579 2.03143C13.9665 2.05932 14.0696 2.10525 14.1628 2.16719L15.2698 0.501516ZM20 7.22797C20 6.81701 20.0053 6.46114 19.9276 6.11322L17.9757 6.54938C17.9943 6.6323 18 6.73063 18 7.22797H20ZM17.4355 5.75625C17.7686 6.12635 17.8298 6.20281 17.8715 6.27672L19.614 5.29518C19.439 4.98444 19.1966 4.72334 18.9221 4.41832L17.4355 5.75625ZM19.9276 6.11322C19.8638 5.82777 19.7587 5.55205 19.614 5.29518L17.8715 6.27672C17.9189 6.36099 17.9541 6.45271 17.9757 6.54938L19.9276 6.11322ZM18 15.8C18 16.3767 17.9993 16.7489 17.9762 17.0323C17.954 17.304 17.9164 17.4046 17.8912 17.454L19.6732 18.362C19.8661 17.9835 19.9373 17.5902 19.9695 17.1949C20.0008 16.8113 20 16.3435 20 15.8H18ZM15.8002 20C16.3438 20 16.8115 20.0008 17.1951 19.9694C17.5904 19.9371 17.9835 19.8657 18.3618 19.673L17.4538 17.891C17.4043 17.9162 17.3036 17.9539 17.0321 17.9761C16.7489 17.9992 16.3767 18 15.8002 18V20ZM17.8912 17.454C17.7956 17.6417 17.6424 17.7949 17.4538 17.891L18.3618 19.673C18.9258 19.3856 19.3854 18.9269 19.6732 18.362L17.8912 17.454ZM14 15.2V19H16V15.2H14ZM15 18L5 18L5 20L15 20L15 18ZM6 19V15.2H4V19H6ZM8.2002 13H11.8002V11H8.2002V13ZM6 15.2C6 14.6235 6.00078 14.2512 6.02393 13.9679C6.04612 13.6962 6.0838 13.5955 6.10899 13.546L4.32698 12.6381C4.13419 13.0164 4.06287 13.4096 4.03057 13.805C3.99922 14.1887 4 14.6565 4 15.2H6ZM8.2002 11C7.65663 11 7.18874 10.9992 6.80498 11.0306C6.40962 11.0629 6.01624 11.1342 5.63781 11.327L6.54579 13.109C6.59517 13.0838 6.69595 13.0461 6.9678 13.0239C7.25126 13.0008 7.62365 13 8.2002 13V11ZM6.10899 13.546C6.205 13.3576 6.35788 13.2047 6.54579 13.109L5.63781 11.327C5.07306 11.6147 4.61447 12.0738 4.32698 12.6381L6.10899 13.546ZM16 15.2C16 14.6566 16.0008 14.1888 15.9696 13.8051C15.9373 13.4099 15.8661 13.0165 15.6732 12.6381L13.8912 13.546C13.9164 13.5954 13.954 13.696 13.9762 13.9677C13.9993 14.2511 14 14.6234 14 15.2H16ZM11.8002 13C12.3768 13 12.7489 13.0008 13.0321 13.0239C13.3036 13.0461 13.4043 13.0838 13.4538 13.109L14.3618 11.327C13.9835 11.1342 13.5904 11.0629 13.1951 11.0306C12.8115 10.9992 12.3437 11 11.8002 11V13ZM15.6732 12.6381C15.3854 12.0732 14.9259 11.6144 14.3618 11.327L13.4538 13.109C13.6424 13.2051 13.7956 13.3583 13.8912 13.546L15.6732 12.6381ZM13 4H7V6H13V4Z" fill="#927587"/>
</svg>
