<svg width="13" height="16" viewBox="0 0 13 16" fill="none" xmlns="http://www.w3.org/2000/svg">
<path fill-rule="evenodd" clip-rule="evenodd" d="M0 3.19038C0 1.42838 1.45507 0 3.25 0H9.75C11.5449 0 13 1.42838 13 3.19038V14.402C13 15.6995 11.506 16.4542 10.4305 15.7001L6.5 12.9441L2.56951 15.7001C1.49398 16.4542 0 15.6995 0 14.402V3.19038ZM3.25 1.59519C2.35254 1.59519 1.625 2.30938 1.625 3.19038V14.402L5.55549 11.646C6.1205 11.2498 6.8795 11.2498 7.44451 11.646L11.375 14.402V3.19038C11.375 2.30938 10.6475 1.59519 9.75 1.59519H3.25Z" fill="white" fill-opacity="0.52"/>
</svg>
