<svg width="21" height="21" viewBox="0 0 21 21" fill="none" xmlns="http://www.w3.org/2000/svg">
<g clip-path="url(#clip0_72_100)">
<path d="M14.4375 14.875C13.8302 14.8757 13.2369 15.0569 12.7329 15.3956C12.2289 15.7344 11.8369 16.2153 11.6069 16.7773C10.8829 16.5742 10.1171 16.5742 9.39312 16.7773C9.11379 16.1 8.60057 15.5456 7.94688 15.215C7.29319 14.8843 6.5425 14.7993 5.83144 14.9755C5.12038 15.1518 4.49624 15.5774 4.07262 16.1751C3.64899 16.7728 3.45406 17.5027 3.52329 18.2319C3.59253 18.9612 3.92133 19.6414 4.44985 20.1487C4.97836 20.656 5.67146 20.9566 6.40297 20.9959C7.13449 21.0351 7.85578 20.8104 8.43557 20.3627C9.01536 19.9149 9.41509 19.2738 9.562 18.5561C9.86334 18.4473 10.1798 18.3862 10.5 18.375C10.8202 18.3861 11.1367 18.4473 11.438 18.5561C11.555 19.1234 11.8305 19.6458 12.2324 20.0628C12.6344 20.4799 13.1464 20.7743 13.7089 20.9121C14.2715 21.0499 14.8616 21.0253 15.4108 20.8412C15.9599 20.6571 16.4456 20.321 16.8115 19.872C17.1774 19.423 17.4084 18.8795 17.4778 18.3044C17.5472 17.7294 17.4521 17.1465 17.2036 16.6233C16.955 16.1002 16.5632 15.6582 16.0736 15.3488C15.584 15.0393 15.0167 14.875 14.4375 14.875V14.875ZM6.5625 19.25C6.30291 19.25 6.04915 19.173 5.83331 19.0288C5.61747 18.8846 5.44925 18.6796 5.34991 18.4398C5.25057 18.1999 5.22458 17.936 5.27522 17.6814C5.32586 17.4268 5.45087 17.193 5.63442 17.0094C5.81798 16.8259 6.05184 16.7009 6.30644 16.6502C6.56104 16.5996 6.82494 16.6256 7.06477 16.7249C7.3046 16.8242 7.50958 16.9925 7.6538 17.2083C7.79802 17.4242 7.875 17.6779 7.875 17.9375C7.875 18.2856 7.73672 18.6194 7.49058 18.8656C7.24444 19.1117 6.9106 19.25 6.5625 19.25V19.25ZM14.4375 19.25C14.1779 19.25 13.9242 19.173 13.7083 19.0288C13.4925 18.8846 13.3242 18.6796 13.2249 18.4398C13.1256 18.1999 13.0996 17.936 13.1502 17.6814C13.2009 17.4268 13.3259 17.193 13.5094 17.0094C13.693 16.8259 13.9268 16.7009 14.1814 16.6502C14.436 16.5996 14.6999 16.6256 14.9398 16.7249C15.1796 16.8242 15.3846 16.9925 15.5288 17.2083C15.673 17.4242 15.75 17.6779 15.75 17.9375C15.75 18.2856 15.6117 18.6194 15.3656 18.8656C15.1194 19.1117 14.7856 19.25 14.4375 19.25ZM17.4781 7.59063C17.2454 0.5355 13.3875 0.02275 13.2169 0.00525C13.1864 0.00175711 13.1557 4.27176e-06 13.125 0C12.3661 0.0301428 11.6321 0.278672 11.011 0.71575C10.8613 0.820444 10.6831 0.876595 10.5004 0.876595C10.3178 0.876595 10.1395 0.820444 9.98987 0.71575C9.36842 0.278736 8.63412 0.0302225 7.875 0C7.84576 0.000166428 7.81655 0.001919 7.7875 0.00525C7.61775 0.02275 3.7625 0.5355 3.52625 7.59063C2.35638 7.98175 0 8.96263 0 10.5C0 13.7288 5.41975 14 10.5 14C15.5803 14 21 13.7288 21 10.5C21 8.96263 18.6436 7.98175 17.4781 7.59063ZM7.92313 1.75438C8.30493 1.79551 8.67039 1.93147 8.98625 2.14988C9.43046 2.45955 9.95894 2.62557 10.5004 2.62557C11.0419 2.62557 11.5704 2.45955 12.0146 2.14988C12.3283 1.93295 12.6909 1.79707 13.0699 1.75438C13.4593 1.84713 15.6153 2.59788 15.7439 7.75513C14.0975 8.4914 12.3016 8.83211 10.5 8.75C8.69845 8.83206 6.90267 8.49167 5.25612 7.756C5.38562 2.555 7.57575 1.8375 7.92313 1.75438ZM10.5 12.25C3.26812 12.25 1.75 11.298 1.7395 10.5718C2.43144 9.89167 3.29723 9.41518 4.242 9.1945C6.18311 10.1546 8.33694 10.6039 10.5 10.5C12.6631 10.6039 14.8169 10.1546 16.758 9.1945C17.6807 9.42514 18.5351 9.87271 19.25 10.5C19.25 11.298 17.7319 12.25 10.5 12.25Z" fill="#C9308C"/>
</g>
<defs>
<clipPath id="clip0_72_100">
<rect width="21" height="21" fill="white"/>
</clipPath>
</defs>
</svg>
