<svg width="20" height="20" viewBox="0 0 20 20" fill="none" xmlns="http://www.w3.org/2000/svg">
<path d="M10 13C11.6569 13 13 11.6569 13 10C13 8.34315 11.6569 7 10 7C8.34315 7 7 8.34315 7 10C7 11.6569 8.34315 13 10 13Z" stroke="black" stroke-opacity="0.33" stroke-width="2" stroke-linecap="round" stroke-linejoin="round"/>
<path fill-rule="evenodd" clip-rule="evenodd" d="M12.2703 2.54104C12.2703 1.68995 11.5803 1 10.7292 1H9.27057C8.41948 1 7.72953 1.68995 7.72953 2.54104C7.72953 3.19575 7.30667 3.76411 6.73133 4.07658C6.64137 4.12544 6.55265 4.17624 6.46522 4.22895C5.90033 4.56948 5.19241 4.65124 4.6199 4.32367C3.87282 3.89621 2.92082 4.15129 2.48754 4.89501L1.78312 6.10415C1.35155 6.84495 1.60624 7.79549 2.35038 8.22127C2.92043 8.54743 3.2042 9.19917 3.19031 9.85578C3.1893 9.90373 3.18879 9.95181 3.18879 10C3.18879 10.0482 3.1893 10.0963 3.19032 10.1443C3.20421 10.8009 2.92043 11.4526 2.3504 11.7787C1.60628 12.2045 1.35159 13.155 1.78315 13.8958L2.48759 15.105C2.92086 15.8487 3.87286 16.1038 4.61993 15.6763C5.19243 15.3488 5.90034 15.4305 6.46523 15.7711C6.55266 15.8238 6.64138 15.8746 6.73133 15.9234C7.30667 16.2359 7.72953 16.8042 7.72953 17.459C7.72953 18.3101 8.41948 19 9.27057 19H10.7292C11.5803 19 12.2703 18.3101 12.2703 17.459C12.2703 16.8042 12.6931 16.2359 13.2685 15.9234C13.3584 15.8746 13.4471 15.8238 13.5346 15.7711C14.0994 15.4305 14.8074 15.3488 15.3799 15.6763C16.1269 16.1038 17.0789 15.8487 17.5122 15.105L18.2167 13.8958C18.6482 13.1551 18.3935 12.2045 17.6494 11.7788C17.0794 11.4526 16.7956 10.8009 16.8095 10.1443C16.8105 10.0963 16.811 10.0482 16.811 10C16.811 9.9518 16.8105 9.90373 16.8095 9.85577C16.7956 9.19916 17.0794 8.54742 17.6494 8.22126C18.3936 7.79548 18.6482 6.84494 18.2167 6.10414L17.5123 4.89501C17.079 4.15128 16.127 3.8962 15.3799 4.32366C14.8074 4.65123 14.0995 4.56948 13.5346 4.22894C13.4471 4.17624 13.3584 4.12543 13.2685 4.07658C12.6931 3.76411 12.2703 3.19575 12.2703 2.54104Z" stroke="black" stroke-opacity="0.33" stroke-width="2"/>
</svg>
