<svg width="16" height="21" viewBox="0 0 16 21" fill="none" xmlns="http://www.w3.org/2000/svg">
<path fill-rule="evenodd" clip-rule="evenodd" d="M0 4C0 1.79086 1.79086 0 4 0H12C14.2091 0 16 1.79086 16 4V18.0568C16 19.6836 14.1613 20.6298 12.8375 19.6843L8 16.2289L3.16248 19.6843C1.83874 20.6298 0 19.6836 0 18.0568V4ZM4 2C2.89543 2 2 2.89543 2 4V18.0568L6.83752 14.6014C7.53292 14.1047 8.46708 14.1047 9.16248 14.6014L14 18.0568V4C14 2.89543 13.1046 2 12 2H4Z" fill="#F1E8FA"/>
<path d="M2.56213 2.57637C3.64889 2.57637 4.73403 2.61428 5.82078 2.61428C6.30783 2.61428 6.78196 2.53845 7.27001 2.53845C7.81441 2.53845 8.33604 2.69012 8.87722 2.69012C9.74437 2.69012 10.6277 2.52904 11.4934 2.63535C12.175 2.71906 12.9113 2.66267 13.406 3.22936C13.5328 3.37455 14.1958 4.01943 13.9327 4.28258C13.7574 4.45786 13.4074 4.66562 13.1807 4.75231C13.015 4.81565 12.8811 4.85131 12.7067 4.85131C12.4573 4.85131 12.2148 4.85438 11.9695 4.79655C11.4661 4.67789 11.0036 4.62382 10.4886 4.62382C9.75495 4.62382 8.9773 4.70391 8.2495 4.61539C7.40984 4.51327 6.56008 4.54799 5.71336 4.54799C5.01843 4.54799 4.31572 4.53213 3.62377 4.59433C3.35988 4.61805 3.10075 4.62382 2.83597 4.62382C2.70245 4.62382 2.61187 4.59496 2.54317 4.71861C2.49426 4.80665 2.51459 4.98943 2.54317 5.08092C2.59958 5.2614 2.49754 5.3709 2.45681 5.5338C2.44107 5.59675 2.23486 5.94439 2.26723 5.98036C2.32028 6.0393 2.55703 6.10254 2.63586 6.10254C2.78779 6.10254 2.96944 6.12989 3.1098 6.06251C3.19976 6.01934 3.22776 5.92906 3.32887 5.91717C3.48951 5.89827 3.61269 5.90979 3.76701 5.85398C4.03999 5.75524 4.42591 5.76567 4.71491 5.76129C5.03408 5.75646 5.33759 5.83712 5.65227 5.83712C6.36919 5.83712 7.08376 5.87504 7.80294 5.87504C8.24645 5.87504 8.71599 5.8931 9.14684 6.00564C9.57166 6.1166 9.94742 6.2542 10.3896 6.2542C11.0007 6.2542 11.583 6.04037 12.1843 6.0267C12.338 6.02321 12.4573 5.96609 12.6014 5.92138C12.7806 5.86576 13.0287 5.91296 13.2165 5.91296C13.4778 5.91296 13.4123 6.0778 13.345 6.31107C13.2604 6.60365 13.1406 6.81616 13.1406 7.12626C13.1406 7.26018 13.1711 7.37561 13.1786 7.50542C13.1863 7.64134 13.3495 7.70072 13.2754 7.84877C13.2608 7.87809 13.3141 7.94605 13.2712 7.9583C13.2312 7.96974 13.1988 7.95759 13.1596 7.97937C12.9409 8.10087 12.727 8.09847 12.4876 8.14999C12.1269 8.22761 11.7834 8.36882 11.426 8.46174C10.9627 8.58219 10.5071 8.64289 10.0294 8.64289C9.40613 8.64289 8.78597 8.62246 8.16314 8.60708C7.68157 8.59519 7.20588 8.52915 6.72444 8.52915C5.84887 8.52915 4.9733 8.52915 4.09772 8.52915C3.86475 8.52915 3.6288 8.51833 3.39628 8.53125C3.34964 8.53384 3.06665 8.53711 3.10138 8.62393C3.10772 8.63978 3.16039 8.67912 3.14351 8.68081C3.01122 8.69404 3.18665 8.8267 2.99606 8.83247C2.80197 8.83835 2.83191 9.04057 2.77278 9.20952C2.67224 9.49677 2.77042 9.89737 2.60005 10.1679C2.51477 10.3034 2.55269 10.4389 2.49473 10.5766C2.42001 10.754 2.62734 10.7283 2.73486 10.7283C3.07503 10.7283 3.32245 10.5993 3.64695 10.5197C4.09946 10.4087 4.5018 10.2733 4.97189 10.2733C5.27919 10.2733 5.58968 10.1817 5.89872 10.1511C6.35686 10.1058 6.8184 10.1216 7.27843 10.1216C8.14075 10.1216 9.01874 10.1124 9.88198 10.0816C10.6906 10.0527 11.4972 10.0458 12.3065 10.0458C12.5486 10.0458 12.7593 10.0105 12.9974 9.96994C13.1573 9.94273 13.5446 9.84727 13.6862 9.9889C13.8281 10.1308 13.6534 10.3934 13.6378 10.5534C13.6103 10.8347 13.6335 11.128 13.6335 11.4107C13.6335 11.5894 13.7075 11.7565 13.7389 11.9331C13.7534 12.0148 13.807 12.1401 13.7831 12.2238C13.7774 12.2438 13.3918 12.3322 13.3639 12.3376C12.8154 12.4442 12.2099 12.3348 11.6535 12.3671C11.0541 12.4019 10.4608 12.5048 9.85881 12.5103C9.17967 12.5165 8.50282 12.5298 7.824 12.5461C6.66997 12.5739 5.52342 12.5482 4.36945 12.5482C3.73524 12.5482 3.11437 12.5522 2.4863 12.6219C2.37082 12.6348 2.2487 12.624 2.13242 12.624C2.08467 12.624 2.18468 12.7113 2.18087 12.7589C2.17083 12.8843 2.11192 13.0001 2.06923 13.117C1.99727 13.3139 1.8803 13.4962 1.80382 13.6941C1.72892 13.888 1.57014 14.0849 1.54051 14.2923C1.52955 14.3691 1.91452 14.5045 1.91756 14.2671C1.92639 13.579 1.80382 12.9141 1.80382 12.228C1.80382 12.1351 1.80165 11.9946 1.93863 12.0195C2.17592 12.0626 2.23113 12.81 2.25038 12.9948C2.30391 13.5087 2.33464 14.0018 2.33464 14.5219C2.33464 14.748 2.33464 14.9741 2.33464 15.2002C2.33464 15.3006 2.33464 15.401 2.33464 15.5014C2.33464 15.5864 2.27274 15.6256 2.2883 15.7163C2.32795 15.9476 2.41548 16.1636 2.44628 16.3946C2.47936 16.6427 2.46347 16.7756 2.49051 17.0054C2.49614 17.0533 2.53164 16.9523 2.54107 16.9296C2.62036 16.7386 2.76814 16.5813 2.86546 16.3988C3.02605 16.0977 3.26941 15.8629 3.43209 15.5646C3.49134 15.456 3.64514 15.345 3.73752 15.2592C3.863 15.1427 3.88178 14.9482 3.98187 14.8147C4.17088 14.5627 4.294 14.308 4.55692 14.1259C4.72038 14.0128 4.95198 13.9792 5.11092 13.8753C5.24499 13.7876 5.41209 13.7391 5.54905 13.6478C5.55758 13.6421 5.66733 13.5549 5.63752 13.5972C5.5221 13.7612 5.35148 13.9553 5.19517 14.0796C4.93965 14.2827 4.76314 14.4573 4.55482 14.7073C4.48692 14.7888 4.38628 14.8533 4.32732 14.939C4.27047 15.0217 4.2624 15.1246 4.20936 15.2107C4.14376 15.3173 4.4372 15.0307 4.46635 14.9959C4.71948 14.6932 5.0019 14.5006 5.33841 14.3071C6.04181 13.9026 6.94969 13.3959 7.78608 13.3824C8.12436 13.3769 8.39562 13.4996 8.72555 13.5551C9.06247 13.6118 9.42544 13.6568 9.76613 13.6878C10.0451 13.7132 10.2592 13.8866 10.4928 14.029C10.8183 14.2275 11.2531 14.4144 11.5271 14.6884C11.9034 15.0647 12.2422 15.4545 12.5529 15.8848C12.684 16.0663 12.8639 16.2103 13.0437 16.3398C13.1442 16.4122 13.4789 16.5763 13.3681 16.5209C13.301 16.4874 13.3836 16.6582 13.4145 16.681C13.4891 16.7362 13.4549 17.2266 13.4039 17.2224C13.2887 17.2128 13.3261 16.9725 13.3323 16.9043C13.3758 16.4259 13.5156 15.9712 13.5198 15.4804C13.5222 15.1936 13.5577 14.9135 13.5577 14.6294C13.5577 14.3986 13.4603 14.0054 13.2923 13.8374" stroke="#F1E8FA" stroke-width="3" stroke-linecap="round"/>
<path d="M13.0649 16.2639C13.2084 16.4294 13.328 16.6132 13.4778 16.7737C13.5167 16.8153 13.5914 16.8985 13.5958 16.9548C13.6049 17.0731 13.7571 17.3022 13.8233 17.4014" stroke="#F1E8FA" stroke-width="3" stroke-linecap="round"/>
</svg>
