<svg width="22" height="22" viewBox="0 0 22 22" fill="none" xmlns="http://www.w3.org/2000/svg">
<path d="M15.4214 14.0072C15.0309 13.6167 14.3977 13.6167 14.0072 14.0072C13.6167 14.3977 13.6167 15.0309 14.0072 15.4214L15.4214 14.0072ZM20.2929 21.7071C20.6834 22.0976 21.3166 22.0976 21.7071 21.7071C22.0976 21.3166 22.0976 20.6834 21.7071 20.2929L20.2929 21.7071ZM9 16C5.13401 16 2 12.866 2 9H0C0 13.9706 4.02944 18 9 18V16ZM2 9C2 5.13401 5.13401 2 9 2V0C4.02944 0 0 4.02944 0 9H2ZM9 2C12.866 2 16 5.13401 16 9H18C18 4.02944 13.9706 0 9 0V2ZM16 9C16 12.866 12.866 16 9 16V18C13.9706 18 18 13.9706 18 9H16ZM14.0072 15.4214L20.2929 21.7071L21.7071 20.2929L15.4214 14.0072L14.0072 15.4214Z" fill="white"/>
</svg>
