<svg width="18" height="20" viewBox="0 0 18 20" fill="none" xmlns="http://www.w3.org/2000/svg">
<path d="M11.75 8C11.75 7.58579 11.4142 7.25 11 7.25C10.5858 7.25 10.25 7.58579 10.25 8H11.75ZM10.25 15C10.25 15.4142 10.5858 15.75 11 15.75C11.4142 15.75 11.75 15.4142 11.75 15H10.25ZM7.75 8C7.75 7.58579 7.41421 7.25 7 7.25C6.58579 7.25 6.25 7.58579 6.25 8L7.75 8ZM6.25 15C6.25 15.4142 6.58579 15.75 7 15.75C7.41421 15.75 7.75 15.4142 7.75 15L6.25 15ZM15 4H15.75C15.75 3.58579 15.4142 3.25 15 3.25V4ZM3 4V3.25C2.58579 3.25 2.25 3.58579 2.25 4H3ZM4.0918 18.782L4.43229 18.1137L4.43229 18.1137L4.0918 18.782ZM3.21799 17.908L2.54973 18.2485L2.54973 18.2485L3.21799 17.908ZM14.7822 17.908L14.114 17.5675L14.7822 17.908ZM13.9078 18.782L13.5673 18.1137L13.9078 18.782ZM1 3.25C0.585786 3.25 0.25 3.58579 0.25 4C0.25 4.41421 0.585786 4.75 1 4.75V3.25ZM17 4.75C17.4142 4.75 17.75 4.41421 17.75 4C17.75 3.58579 17.4142 3.25 17 3.25V4.75ZM13 4V4.75C13.4142 4.75 13.75 4.41421 13.75 4H13ZM5 4H4.25C4.25 4.41421 4.58579 4.75 5 4.75V4ZM12.8477 2.23462L13.5406 1.94761L12.8477 2.23462ZM11.7654 1.15224L12.0524 0.459331L12.0524 0.459331L11.7654 1.15224ZM10.25 8V15H11.75V8H10.25ZM6.25 8L6.25 15L7.75 15L7.75 8L6.25 8ZM14.25 4V15.8H15.75V4H14.25ZM11.8002 18.25H6.2002V19.75H11.8002V18.25ZM3.75 15.8V4H2.25V15.8H3.75ZM3 4.75H15V3.25H3V4.75ZM6.2002 18.25C5.62779 18.25 5.24345 18.2494 4.94746 18.2252C4.66018 18.2018 4.52282 18.1599 4.43229 18.1137L3.7513 19.4502C4.0886 19.6221 4.44538 19.6892 4.82532 19.7202C5.19655 19.7506 5.6525 19.75 6.2002 19.75V18.25ZM2.25 15.8C2.25 16.3477 2.24942 16.8036 2.27974 17.1747C2.31078 17.5546 2.37789 17.9113 2.54973 18.2485L3.88624 17.5675C3.8401 17.477 3.79822 17.3397 3.77476 17.0525C3.75058 16.7567 3.75 16.3724 3.75 15.8H2.25ZM4.43229 18.1137C4.1972 17.9939 4.00614 17.8029 3.88624 17.5675L2.54973 18.2485C2.81333 18.7659 3.23374 19.1865 3.7513 19.4502L4.43229 18.1137ZM14.25 15.8C14.25 16.3725 14.2495 16.7567 14.2253 17.0527C14.2019 17.3399 14.1601 17.4771 14.114 17.5675L15.4505 18.2485C15.6224 17.9112 15.6894 17.5544 15.7204 17.1746C15.7506 16.8035 15.75 16.3476 15.75 15.8H14.25ZM11.8002 19.75C12.3479 19.75 12.8037 19.7506 13.1747 19.7202C13.5546 19.6892 13.9111 19.6221 14.2483 19.4502L13.5673 18.1137C13.4767 18.1599 13.3394 18.2018 13.0525 18.2252C12.7567 18.2494 12.3726 18.25 11.8002 18.25V19.75ZM14.114 17.5675C13.9943 17.8024 13.8029 17.9937 13.5673 18.1137L14.2483 19.4502C14.7653 19.1868 15.1866 18.7664 15.4505 18.2485L14.114 17.5675ZM1 4.75H17V3.25H1V4.75ZM13 3.25H5V4.75H13V3.25ZM8 1.75H10V0.25H8V1.75ZM5.75 4C5.75 3.5238 5.75041 3.2042 5.76729 2.95673C5.78372 2.716 5.81319 2.59878 5.84515 2.52163L4.45933 1.94761C4.33905 2.238 4.2924 2.53753 4.27077 2.85463C4.24959 3.165 4.25 3.54432 4.25 4H5.75ZM8 0.25C7.54432 0.25 7.16494 0.249594 6.85452 0.270769C6.53739 0.292401 6.23778 0.339037 5.94736 0.459331L6.52139 1.84515C6.59851 1.8132 6.71577 1.78372 6.9566 1.76729C7.20414 1.75041 7.5238 1.75 8 1.75V0.25ZM5.84515 2.52163C5.97209 2.21518 6.21527 1.97195 6.52139 1.84515L5.94736 0.459331C5.27337 0.738508 4.73837 1.27395 4.45933 1.94761L5.84515 2.52163ZM13.75 4C13.75 3.54428 13.7504 3.16496 13.7292 2.85456C13.7075 2.53744 13.6608 2.23795 13.5406 1.94761L12.1547 2.52163C12.1867 2.59883 12.2162 2.71609 12.2327 2.9568C12.2496 3.20424 12.25 3.52384 12.25 4H13.75ZM10 1.75C10.4762 1.75 10.7958 1.75041 11.0433 1.76729C11.284 1.78372 11.4012 1.81319 11.4784 1.84515L12.0524 0.459331C11.762 0.339048 11.4625 0.292405 11.1454 0.27077C10.835 0.249594 10.4557 0.25 10 0.25V1.75ZM13.5406 1.94761C13.2615 1.27384 12.7263 0.738465 12.0524 0.459331L11.4784 1.84515C11.7846 1.97199 12.0279 2.21529 12.1547 2.52163L13.5406 1.94761Z" fill="#927587"/>
</svg>
