<svg width="58" height="41" viewBox="0 0 58 41" fill="none" xmlns="http://www.w3.org/2000/svg">
<path d="M0 20L8.53756 12C11.7927 17.2759 11.8488 23.431 8.53756 29L0 20Z" fill="#C9308C"/>
<path d="M11 31.7153C16.1384 24.3167 15.564 16.1548 11 9.81317L15.564 4C24.7186 11.3399 23.5243 31.5979 15.6537 37L11 31.7153Z" fill="#C9308C"/>
<path d="M24 31.7153C29.1384 24.3167 28.564 16.1548 24 9.81317L28.564 4C37.7186 11.3399 36.5243 31.5979 28.6537 37L24 31.7153Z" fill="#C9308C"/>
<path d="M37 31.7153C40.2699 24.3167 39.9044 16.1548 37 9.81317L39.9044 4C45.73 11.3399 44.97 31.5979 39.9614 37L37 31.7153Z" fill="#C9308C"/>
<path d="M37 31.8754C43.0727 24.7011 42.3938 16.7865 37 10.637L42.3938 5C53.2129 12.1174 51.8014 31.7616 42.4998 37L37 31.8754Z" fill="#C9308C"/>
<path d="M18 0V1.45985C20.5644 3.32847 22.6043 6.0146 23.0123 8L37 0H18Z" fill="#C9308C"/>
<path d="M18 41V39.7226C20.5644 38.0876 22.6043 35.7372 23.0123 34L37 41H18Z" fill="#C9308C"/>
<path d="M37.0003 32.2143C40.32 32.2143 43.1501 31.0722 45.4899 28.7878C47.8304 26.5036 49.0003 23.741 49.0003 20.5C49.0003 17.259 47.8304 14.4964 45.4899 12.2122C43.1501 9.92784 40.32 8.78571 37.0003 8.78571C33.68 8.78571 30.8499 9.92784 28.5101 12.2122C26.1702 14.4964 25.0003 17.259 25.0003 20.5C25.0003 23.741 26.1702 26.5036 28.5101 28.7878C30.8499 31.0722 33.68 32.2143 37.0003 32.2143ZM37.0003 41C31.2 41 26.2502 38.9988 22.1504 34.9964C18.0499 30.9941 16 26.1619 16 20.5C16 14.8381 18.0499 10.0059 22.1504 6.00359C26.2502 2.00117 31.2 0 37.0003 0C42.8 0 47.7504 2.00117 51.8502 6.00359C55.9501 10.0059 58 14.8381 58 20.5C58 26.1619 55.9501 30.9941 51.8502 34.9964C47.7504 38.9988 42.8 41 37.0003 41Z" fill="#C9308C"/>
<path d="M37.5003 31.0714C40.4248 31.0714 42.9179 30.0407 44.9792 27.9793C47.0411 25.9179 48.0717 23.4248 48.0717 20.5C48.0717 17.5752 47.0411 15.0821 44.9792 13.0207C42.9179 10.9593 40.4248 9.92857 37.5003 9.92857C34.5752 9.92857 32.0821 10.9593 30.0208 13.0207C27.9595 15.0821 26.9288 17.5752 26.9288 20.5C26.9288 23.4248 27.9595 25.9179 30.0208 27.9793C32.0821 30.0407 34.5752 31.0714 37.5003 31.0714ZM37.5003 39C32.3905 39 28.03 37.1941 24.4182 33.5821C20.8059 29.9703 19 25.6095 19 20.5C19 15.3905 20.8059 11.0297 24.4182 7.41787C28.03 3.80594 32.3905 2 37.5003 2C42.6095 2 46.9706 3.80594 50.5823 7.41787C54.1941 11.0297 56 15.3905 56 20.5C56 25.6095 54.1941 29.9703 50.5823 33.5821C46.9706 37.1941 42.6095 39 37.5003 39Z" fill="white"/>
</svg>
