<svg width="156" height="58" viewBox="0 0 156 58" fill="none" xmlns="http://www.w3.org/2000/svg">
<path d="M25.92 17.288H12.096C6.976 17.288 4.736 21.64 4.736 26.376C4.736 30.024 13.504 34.696 15.744 36.168L14.976 39.048H6.976L0.512 44.936H15.936C21.056 44.936 23.424 39.816 23.424 35.08C23.424 31.496 14.656 27.016 12.416 25.352L13.056 23.112H19.264L25.92 17.288ZM48.945 17.224C45.873 17.224 42.801 17.544 39.857 17.736V17.288H27.505L31.089 21.704L25.329 44.936H32.561L38.257 23.24H45.361L39.537 44.936H47.217C48.049 41.48 53.553 22.856 53.553 20.552C53.553 17.864 51.249 17.224 48.945 17.224ZM73.9105 17.288H62.8385C60.0865 17.288 57.5905 18.312 56.8865 21.256C55.9905 24.264 51.7665 39.176 51.7665 41.48C51.7665 44.168 54.0705 44.936 56.3105 44.936H70.3905L65.7185 39.112H59.5745L61.1105 33.224H73.2065L75.8945 31.496C76.6625 28.488 78.7105 23.752 78.7105 20.68C78.7105 18.12 76.1505 17.288 73.9105 17.288ZM62.7105 27.528L63.8625 23.048H70.6465L69.4305 27.528H62.7105ZM98.6025 17.288H87.6585C83.6905 17.288 82.7305 18.696 81.3865 21.96L85.8025 27.528C82.5385 27.528 79.5305 27.784 78.5705 31.496C77.6745 34.696 76.0745 38.472 76.0745 41.736C76.0745 44.296 78.5705 45 80.7465 45C83.9465 45 87.2105 44.616 90.2185 44.296L96.0425 50.184C97.0665 46.408 103.339 22.856 103.339 20.68C103.339 18.12 100.843 17.288 98.6025 17.288ZM95.4025 23.048L94.2505 27.528H87.4665L88.6825 23.048H95.4025ZM92.7785 33.096L91.2425 38.92H84.0105L85.6105 33.096H92.7785ZM114.251 24.584L118.667 8.136L113.035 0.263996L101.131 44.936H108.811L111.371 35.464L116.939 48.008L128.971 57.736L116.939 30.152L129.099 19.72L129.739 17.288H122.379L114.251 24.584ZM138.684 32.84V17.288H131.004L132.54 42.888L128.892 49.288L132.86 55.56C140.732 42.952 148.284 30.088 155.9 17.288H147.836L138.684 32.84Z" fill="#333333"/>
</svg>
