<svg width="195" height="62" viewBox="0 0 195 62" fill="none" xmlns="http://www.w3.org/2000/svg">
<path d="M141.46 28.4885L149.333 21.4257C152.334 26.0835 152.386 31.5175 149.333 36.4341L141.46 28.4885Z" fill="#C9308C"/>
<path d="M151.195 38.9182C155.936 32.3974 155.406 25.2037 151.195 19.6144L155.406 14.4908C163.852 20.96 162.75 38.8147 155.488 43.576L151.195 38.9182Z" fill="#C9308C"/>
<path d="M162.793 40.4579C167.534 33.1944 167.004 25.1815 162.793 18.9557L167.004 13.2487C175.45 20.4545 174.348 40.3426 167.087 45.646L162.793 40.4579Z" fill="#C9308C"/>
<path d="M172.621 42.6444C179.35 34.6447 177.054 20.1056 171.078 13.2487L181.14 13.2487C193.127 21.1849 191.446 36.8033 181.14 42.6444L172.621 42.6444Z" fill="#C9308C"/>
<path d="M157.305 10.9716V12.2654C159.583 13.9215 161.395 16.3022 161.758 18.0618L174.185 10.9716H157.305Z" fill="#C9308C"/>
<path d="M157.305 47.975V46.6812C159.583 45.0251 161.395 42.6444 161.758 40.8848L174.185 47.975H157.305Z" fill="#C9308C"/>
<path d="M14.0727 33.3779C6.47783 33.3779 2.68042 29.6349 2.68042 22.1492C2.68042 14.6633 6.47783 10.9204 14.0727 10.9204H33L39.1948 18.8466H14.0727C11.8389 18.8466 10.722 19.9474 10.722 22.1492C10.722 24.3508 11.8389 25.4517 14.0727 25.4517H15.4129C23.0078 25.4517 26.8052 29.1946 26.8052 36.6804C26.8052 44.1662 23.0078 47.9091 15.4129 47.9091H2.68042V39.9829H15.4129C17.6468 39.9829 18.7636 38.8821 18.7636 36.6804C18.7636 34.4787 17.6468 33.3779 15.4129 33.3779H14.0727ZM40.2079 25.4517H47.5794C49.8132 25.4517 50.9301 24.3508 50.9301 22.1492C50.9301 19.9474 49.8132 18.8466 47.5794 18.8466H40.2079V25.4517ZM40.2079 33.3779V47.9091H32.1663V10.9204H47.5794C55.1743 10.9204 58.9717 14.6633 58.9717 22.1492C58.9717 29.6349 55.1743 33.3779 47.5794 33.3779H40.2079ZM71.6238 39.9829L87.5 40L82.3459 47.9091H63.5825V10.9204H92L87.5 18.8466H71.6238V25.4517H84L79.6651 33.3779H71.6238V39.9829ZM82.3459 47.9091L103.79 8.01422L125.234 47.9091H116.12L103.79 24.9761L91.46 47.9091H82.3459ZM125.234 47.9091V13.5625L133.276 10.9204V22.017L144.534 10.9204H155.9L137.27 29.2826L156.168 47.9091H144.803L133.276 36.5483V47.9091H125.234Z" fill="white"/>
<path d="M174.826 40.0341C177.792 40.0341 180.321 39.0037 182.412 36.9429C184.503 34.8821 185.548 32.3898 185.548 29.4659C185.548 26.5421 184.503 24.0497 182.412 21.989C180.321 19.9281 177.792 18.8978 174.826 18.8978C171.859 18.8978 169.331 19.9281 167.24 21.989C165.149 24.0497 164.104 26.5421 164.104 29.4659C164.104 32.3898 165.149 34.8821 167.24 36.9429C169.331 39.0037 171.859 40.0341 174.826 40.0341ZM174.826 47.9603C169.643 47.9603 165.221 46.1549 161.557 42.544C157.894 38.9333 156.062 34.5739 156.062 29.4659C156.062 24.358 157.894 19.9986 161.557 16.3878C165.221 12.777 169.643 10.9716 174.826 10.9716C180.008 10.9716 184.431 12.777 188.095 16.3878C191.758 19.9986 193.59 24.358 193.59 29.4659C193.59 34.5739 191.758 38.9333 188.095 42.544C184.431 46.1549 180.008 47.9603 174.826 47.9603Z" fill="#C9308C"/>
<path d="M174.806 38.763C177.426 38.763 179.659 37.8547 181.505 36.0382C183.351 34.2217 184.275 32.0247 184.275 29.4474C184.275 26.8701 183.351 24.6732 181.505 22.8567C179.659 21.0402 177.426 20.1319 174.806 20.1319C172.187 20.1319 169.954 21.0402 168.107 22.8567C166.261 24.6732 165.338 26.8701 165.338 29.4474C165.338 32.0247 166.261 34.2217 168.107 36.0382C169.954 37.8547 172.187 38.763 174.806 38.763ZM174.806 45.7496C170.23 45.7496 166.324 44.1582 163.09 40.9754C159.854 37.7926 158.237 33.9499 158.237 29.4474C158.237 24.9449 159.854 21.1023 163.09 17.9195C166.324 14.7367 170.23 13.1453 174.806 13.1453C179.382 13.1453 183.288 14.7367 186.523 17.9195C189.758 21.1023 191.375 24.9449 191.375 29.4474C191.375 33.9499 189.758 37.7926 186.523 40.9754C183.288 44.1582 179.382 45.7496 174.806 45.7496Z" fill="white"/>
</svg>
