<svg width="126" height="39" viewBox="0 0 126 39" fill="none" xmlns="http://www.w3.org/2000/svg">
<g clip-path="url(#clip0_61_138)">
<path d="M120.872 12.2778C120.872 11.0811 121.856 10.1111 123.07 10.1111C124.283 10.1111 125.267 11.0811 125.267 12.2778V26.7222C125.267 27.9188 124.283 28.8889 123.07 28.8889C121.856 28.8889 120.872 27.9188 120.872 26.7222V12.2778Z" fill="#C9308C"/>
<path d="M113.547 3.61112C113.547 2.41451 114.53 1.44446 115.744 1.44446C116.958 1.44446 117.942 2.41451 117.942 3.61112V36.8333C117.942 38.03 116.958 39 115.744 39C114.53 39 113.547 38.03 113.547 36.8333V3.61112Z" fill="#C9308C"/>
<path d="M106.221 9.38883C106.221 8.19222 107.205 7.22217 108.419 7.22217C109.632 7.22217 110.616 8.19222 110.616 9.38883V29.6111C110.616 30.8077 109.632 31.7777 108.419 31.7777C107.205 31.7777 106.221 30.8077 106.221 29.6111V9.38883Z" fill="#C9308C"/>
<path d="M98.8954 16.6111C98.8954 15.4145 99.8794 14.4445 101.093 14.4445C102.307 14.4445 103.291 15.4145 103.291 16.6111V23.8333C103.291 25.03 102.307 26 101.093 26C99.8794 26 98.8954 25.03 98.8954 23.8333V16.6111Z" fill="#C9308C"/>
<path d="M7.93719 27.6719C11.3985 27.6719 13.5266 25.8519 13.5266 23.4506C13.4241 18.3192 5.55271 19.9117 5.55271 17.3586C5.55271 16.5497 6.24498 16.0189 7.57824 16.0189C8.98841 16.0189 9.86016 16.7519 9.96271 17.8389H13.3984C13.1933 15.0583 11.1165 13.2131 7.68079 13.2131C4.16818 13.2131 2.06574 15.0836 2.06574 17.4092C2.06574 22.5406 10.0909 20.9481 10.0909 23.4506C10.0909 24.2594 9.32172 24.8914 7.91155 24.8914C6.47574 24.8914 5.47579 24.0825 5.3476 23.0208H1.73242C1.88626 25.6244 4.37329 27.6719 7.93719 27.6719ZM20.0626 15.4628V13.4406H16.4731V34.1178H20.0626V25.4475C20.9344 26.585 22.524 27.6719 24.7547 27.6719C28.3955 27.6719 31.2415 24.765 31.2415 20.3919C31.2415 16.0189 28.3955 13.2131 24.7547 13.2131C22.5497 13.2131 20.9087 14.2747 20.0626 15.4628ZM27.575 20.3919C27.575 23.0461 25.7546 24.5628 23.806 24.5628C21.883 24.5628 20.0626 23.0967 20.0626 20.4425C20.0626 17.7883 21.883 16.3222 23.806 16.3222C25.7546 16.3222 27.575 17.7378 27.575 20.3919ZM39.9522 16.12C41.7982 16.12 43.2853 17.2828 43.3366 19.1281H36.5934C36.8754 17.2069 38.2343 16.12 39.9522 16.12ZM46.6954 23.0461H42.8238C42.3623 23.9814 41.5162 24.7397 39.9778 24.7397C38.183 24.7397 36.7472 23.5769 36.5678 21.5042H46.9518C47.0287 21.0492 47.0543 20.5942 47.0543 20.1392C47.0543 15.9683 44.1571 13.2131 40.0547 13.2131C35.8499 13.2131 32.9269 16.0189 32.9269 20.4425C32.9269 24.8408 35.9268 27.6719 40.0547 27.6719C43.5674 27.6719 45.9262 25.6244 46.6954 23.0461ZM48.7514 20.3919C48.7514 24.765 51.623 27.6719 55.2125 27.6719C57.4688 27.6719 59.0841 26.6103 59.9302 25.3969V27.4444H63.5454V13.4406H59.9302V15.4375C59.0841 14.2747 57.5201 13.2131 55.2382 13.2131C51.623 13.2131 48.7514 16.0189 48.7514 20.3919ZM59.9302 20.4425C59.9302 23.0967 58.1354 24.5628 56.1612 24.5628C54.2382 24.5628 52.4178 23.0461 52.4178 20.3919C52.4178 17.7378 54.2382 16.3222 56.1612 16.3222C58.1354 16.3222 59.9302 17.7883 59.9302 20.4425ZM67.0511 8.73889V27.4444H70.6406V21.4789L75.4609 27.4444H80.1273L73.82 20.4678L80.076 13.4406H75.4096L70.6406 19.3808V8.73889H67.0511ZM88.3315 27.6719C92.4594 27.6719 95.7413 24.8408 95.7413 20.4425C95.7413 16.0189 92.5364 13.2131 88.434 13.2131C84.3317 13.2131 81.1268 16.0189 81.1268 20.4425C81.1268 24.8408 84.2292 27.6719 88.3315 27.6719ZM88.3315 24.5881C86.4085 24.5881 84.7676 23.2231 84.7676 20.4425C84.7676 17.6367 86.4854 16.2969 88.3828 16.2969C90.2801 16.2969 92.0492 17.6367 92.0492 20.4425C92.0492 23.2231 90.2288 24.5881 88.3315 24.5881Z" fill="white"/>
</g>
<defs>
<clipPath id="clip0_61_138">
<rect width="126" height="39" fill="white"/>
</clipPath>
</defs>
</svg>
