<svg width="117" height="44" viewBox="0 0 117 44" fill="none" xmlns="http://www.w3.org/2000/svg">
<path d="M19.44 13.216H9.072C5.232 13.216 3.552 16.48 3.552 20.032C3.552 22.768 10.128 26.272 11.808 27.376L11.232 29.536H5.232L0.384 33.952H11.952C15.792 33.952 17.568 30.112 17.568 26.56C17.568 23.872 10.992 20.512 9.312 19.264L9.792 17.584H14.448L19.44 13.216ZM36.7088 13.168C34.4048 13.168 32.1008 13.408 29.8928 13.552V13.216H20.6288L23.3168 16.528L18.9968 33.952H24.4208L28.6928 17.68H34.0208L29.6528 33.952H35.4128C36.0368 31.36 40.1648 17.392 40.1648 15.664C40.1648 13.648 38.4368 13.168 36.7088 13.168ZM55.4329 13.216H47.1289C45.0649 13.216 43.1929 13.984 42.6649 16.192C41.9929 18.448 38.8249 29.632 38.8249 31.36C38.8249 33.376 40.5529 33.952 42.2329 33.952H52.7929L49.2889 29.584H44.6809L45.8329 25.168H54.9049L56.9209 23.872C57.4969 21.616 59.0329 18.064 59.0329 15.76C59.0329 13.84 57.1129 13.216 55.4329 13.216ZM47.0329 20.896L47.8969 17.536H52.9849L52.0729 20.896H47.0329ZM73.9519 13.216H65.7439C62.7679 13.216 62.0479 14.272 61.0399 16.72L64.3519 20.896C61.9039 20.896 59.6479 21.088 58.9279 23.872C58.2559 26.272 57.0559 29.104 57.0559 31.552C57.0559 33.472 58.9279 34 60.5599 34C62.9599 34 65.4079 33.712 67.6639 33.472L72.0319 37.888C72.7999 35.056 77.5039 17.392 77.5039 15.76C77.5039 13.84 75.6319 13.216 73.9519 13.216ZM71.5519 17.536L70.6879 20.896H65.5999L66.5119 17.536H71.5519ZM69.5839 25.072L68.4319 29.44H63.0079L64.2079 25.072H69.5839ZM85.6883 18.688L89.0003 6.352L84.7763 0.447997L75.8483 33.952H81.6083L83.5283 26.848L87.7043 36.256L96.7283 43.552L87.7043 22.864L96.8243 15.04L97.3043 13.216H91.7843L85.6883 18.688ZM104.013 24.88V13.216H98.2526L99.4046 32.416L96.6686 37.216L99.6446 41.92C105.549 32.464 111.213 22.816 116.925 13.216H110.877L104.013 24.88Z" fill="#FFEC09"/>
</svg>
