<svg width="88" height="30" viewBox="0 0 88 30" fill="none" xmlns="http://www.w3.org/2000/svg">
<path d="M10.2832 11.916V1.01758H15.9258V11.916C16.0195 13.5684 16.7285 14.418 18.0527 14.4648H18.3691C19.7988 14.418 20.5137 13.4277 20.5137 11.4941V1.01758H26.1387V11.4941C26.1387 16.5918 23.5488 19.2812 18.3691 19.5625H18.0527C15.9902 19.4453 14.3379 18.9531 13.0957 18.0859C11.8652 18.9531 10.2188 19.4453 8.15625 19.5625H7.83984C2.66016 19.2812 0.0703125 16.5918 0.0703125 11.4941V1.01758H5.69531V11.4941C5.69531 13.4277 6.41016 14.418 7.83984 14.4648H8.15625C9.48047 14.418 10.1895 13.5684 10.2832 11.916ZM38.8125 21.0742H38.7949V21.25C38.7832 21.2852 38.7773 21.3145 38.7773 21.3379C38.7656 21.502 38.7363 21.6367 38.6895 21.7422L38.6543 21.8652L38.6191 21.9883L38.584 22.0762L38.5664 22.1289C38.2969 22.7734 37.8926 23.2773 37.3535 23.6406C36.7793 24.0391 36.1465 24.2383 35.4551 24.2383C34.5645 24.2383 33.7969 23.9336 33.1523 23.3242C32.5078 22.7148 32.1621 21.9648 32.1152 21.0742L27.0352 24.0449C27.2695 24.8418 27.8789 25.7441 28.8633 26.752C30.375 28.252 32.3848 29.0254 34.8926 29.0723H35.8242C36.9492 29.0723 38.0684 28.873 39.1816 28.4746C40.4121 28.0293 41.3789 27.4551 42.082 26.752C43.6289 25.1816 44.4023 23.3066 44.4023 21.127V1.01758L38.7773 1.03516V11.125C38.7773 12.1797 38.5312 12.9824 38.0391 13.5332C37.5234 14.084 36.8379 14.3594 35.9824 14.3594C35.0918 14.3594 34.4004 14.0898 33.9082 13.5508C33.416 13 33.1699 12.1914 33.1699 11.125V1.01758H27.5449V11.5117C27.5449 17.3828 30.3164 20.0254 35.8594 19.4395C36.7617 19.3574 37.7461 19.0996 38.8125 18.666V21.0742ZM52.2246 9.94727C52.2246 8.69336 52.6934 7.61523 53.6309 6.71289C54.5566 5.81055 55.6523 5.35938 56.918 5.35938C58.1953 5.35938 59.2969 5.81055 60.2227 6.71289C61.1602 7.62695 61.6289 8.70508 61.6289 9.94727C61.6289 10.7676 61.4121 11.5176 60.9785 12.1973C60.5449 12.8887 59.9648 13.4395 59.2383 13.8496C58.5117 14.2598 57.7383 14.4648 56.918 14.4648C56.0977 14.4648 55.3301 14.2598 54.6152 13.8496C53.8887 13.4395 53.3086 12.8887 52.875 12.1973C52.4414 11.5293 52.2246 10.7793 52.2246 9.94727ZM46.6172 25.9082L52.2246 25.9258V18.5078L52.6289 18.6836L53.0332 18.8594C54.2988 19.3164 55.5938 19.5449 56.918 19.5449C58.2656 19.5449 59.5664 19.3164 60.8203 18.8594C62.0625 18.4023 63.1699 17.7285 64.1426 16.8379C65.1152 15.959 65.8711 14.9336 66.4102 13.7617C66.9609 12.5781 67.2363 11.3066 67.2363 9.94727C67.2363 8.55273 66.9668 7.27539 66.4277 6.11523C65.8887 4.95508 65.127 3.92383 64.1426 3.02148C63.1465 2.11914 62.0391 1.44531 60.8203 1C59.5898 0.519531 58.2891 0.279297 56.918 0.279297C55.125 0.279297 53.4316 0.701172 51.8379 1.54492C50.2441 2.37695 48.9785 3.52539 48.041 4.99023C47.1035 6.41992 46.6289 8.03125 46.6172 9.82422V25.9082ZM78.0117 5.37695C78.7969 5.37695 79.5352 5.57617 80.2266 5.97461C80.6484 6.23242 81.0586 6.5957 81.457 7.06445H74.5664C74.9648 6.5957 75.375 6.23242 75.7969 5.97461C76.4883 5.57617 77.2266 5.37695 78.0117 5.37695ZM87.0996 6.08008C86.5723 4.88477 85.8457 3.85938 84.9199 3.00391C83.9824 2.125 82.9219 1.45703 81.7383 1C80.543 0.53125 79.3008 0.296875 78.0117 0.296875C76.7227 0.296875 75.4746 0.53125 74.2676 1C73.0957 1.45703 72.041 2.13086 71.1035 3.02148C70.1777 3.88867 69.4512 4.9082 68.9238 6.08008C68.3965 7.24023 68.1328 8.50586 68.1328 9.87695C68.1328 11.7051 68.5898 13.3516 69.5039 14.8164C70.3945 16.2812 71.6074 17.4355 73.1426 18.2793C74.6426 19.1113 76.2656 19.5273 78.0117 19.5273C79.3008 19.5273 80.543 19.293 81.7383 18.8242C82.6289 18.4609 83.5078 17.9277 84.375 17.2246L81.3516 12.9004L81.3164 12.9531L81.2637 13.0059L81.2109 13.0762L81.1758 13.1113C80.2852 14.002 79.2305 14.4473 78.0117 14.4473C76.8047 14.4473 75.75 14.002 74.8477 13.1113C74.1328 12.3965 73.7051 11.5469 73.5645 10.5625H85.6582V10.5273H87.8379L87.873 10.2285C87.8848 10.1582 87.8906 10.0938 87.8906 10.0352V9.87695C87.8906 8.5293 87.627 7.26367 87.0996 6.08008Z" fill="#FCEA1C"/>
</svg>
